<?xml version="1.0" encoding="UTF-8"?>
<svg
    fill="none"
    shape-rendering="geometricPrecision"
    aria-labelledby="coretsiaFaviconAppleTouchTitle coretsiaFaviconAppleTouchDesc"
    role="img"
    viewBox="170 170 684 684"
    xmlns="http://www.w3.org/2000/svg"
>
    <title id="coretsiaFaviconAppleTouchTitle">Coretsia favicon apple touch</title>
    <desc id="coretsiaFaviconAppleTouchDesc">Compact Coretsia favicon symbol optimized for favicon and app icon rendering.</desc>
    <rect x="170" y="170" width="684" height="684" rx="120" fill="#F8F8F8"/>
    <path fill="#3C3F48" d="m376.2 285.8 54.5 101.6 66-37.9q12.1-7 24.5-0.5l73.2 38.4 54.5-101.6-120.4-67q-12.2-6.8-24.6-0.3z"/>
    <path fill="#3C3F48" d="m671.4 299.7-53.5 100.5 32.1 21.2q13.9 7.7 13.9 21.7v45.9l127.2 20.3v-127.5q0-13.3-15.1-22z"/>
    <path fill="#3C3F48" d="m791.1 536.1-127.2-19.3v63q0 14-15.3 21.1l-66 38.9 63.1 97.3 129-73.3q16.4-9.3 16.4-20.9z"/>
    <path fill="#3C3F48" d="m402.9 752.1 102 53.4q12.4 6.5 24.5-0.5l92.8-54-63.1-98.4-28.6 16.6q-12.1 7-24.9 1.3l-40.7-17.9z"/>
    <path fill="#3C3F48" d="m232.9 536.1 128.3-19.3v63q0 14 14.2 21.1l66 38.9-63.1 97.3-129-73.3q-16.4-9.3-16.4-20.9z"/>
    <path fill="#3C3F48" d="m407.2 400.2-54.6-100.5-104.6 60.1q-15.1 8.7-15.1 22v127.5l128.3-20.3v-47q0-14 13.9-21.5z"/>
    <polygon fill="#E41E29" points="510.9,376.7 631.8,446.2 631.8,576.7 513.1,643.0 393.3,577.8 393.3,445.2"/>
</svg>
