<?xml version="1.0" encoding="UTF-8"?>
<svg
    fill="none"
    shape-rendering="geometricPrecision"
    aria-labelledby="coretsiaLockupDarkTitle coretsiaLockupDarkDesc"
    role="img"
    viewBox="0 0 2200 1024"
    xmlns="http://www.w3.org/2000/svg"
>
    <title id="coretsiaLockupDarkTitle">Coretsia dark lockup</title>
    <desc id="coretsiaLockupDarkDesc">Dark Coretsia lockup with the symbol on the left and the wordmark on the right.</desc>
    <path fill="#D7DCE5" d="m376.2 285.8 54.5 101.6 66-37.9q12.1-7 24.5-0.5l73.2 38.4 54.5-101.6-120.4-67q-12.2-6.8-24.6-0.3z"/>
    <path fill="#D7DCE5" d="m671.4 299.7-53.5 100.5 32.1 21.2q13.9 7.7 13.9 21.7v45.9l127.2 20.3v-127.5q0-13.3-15.1-22z"/>
    <path fill="#D7DCE5" d="m791.1 536.1-127.2-19.3v63q0 14-15.3 21.1l-66 38.9 63.1 97.3 129-73.3q16.4-9.3 16.4-20.9z"/>
    <path fill="#D7DCE5" d="m402.9 752.1 102 53.4q12.4 6.5 24.5-0.5l92.8-54-63.1-98.4-28.6 16.6q-12.1 7-24.9 1.3l-40.7-17.9z"/>
    <path fill="#D7DCE5" d="m232.9 536.1 128.3-19.3v63q0 14 14.2 21.1l66 38.9-63.1 97.3-129-73.3q-16.4-9.3-16.4-20.9z"/>
    <path fill="#D7DCE5" d="m407.2 400.2-54.6-100.5-104.6 60.1q-15.1 8.7-15.1 22v127.5l128.3-20.3v-47q0-14 13.9-21.5z"/>
    <polygon fill="#BE1828" points="510.9 376.7 631.8 446.2 631.8 576.7 513.1 643 393.3 577.8 393.3 445.2"/>
    <polygon fill="#BE1828" points="510.9 376.7 512 512 393.3 577.8 393.3 445.2"/>
    <polygon fill="#E41E29" points="510.9 376.7 631.8 446.2 631.8 576.7 512 512"/>
    <polygon fill="#AD1927" points="512 512 631.8 576.7 513.1 643 393.3 577.8"/>
    <path fill="#D7DCE5" d="m1007.8 623.24q-28.512 0-48.576-12.408-20.064-12.54-30.756-34.848-10.56-22.308-10.56-51.744t10.56-51.744q10.692-22.308 30.756-34.716 20.064-12.54 48.576-12.54 32.868 0 54.384 16.632 21.648 16.632 30.096 44.748l-27.984 7.524q-5.544-19.932-19.8-31.284-14.124-11.352-36.696-11.352-20.196 0-33.66 9.108t-20.328 25.476q-6.732 16.368-6.732 38.148-0.132 21.78 6.6 38.148 6.864 16.368 20.328 25.476 13.596 9.108 33.792 9.108 22.572 0 36.696-11.352 14.256-11.484 19.8-31.284l27.984 7.524q-8.448 28.116-30.096 44.748-21.516 16.632-54.384 16.632zm173.43 0q-21.384 0-37.092-9.636t-24.288-26.532q-8.448-17.028-8.448-39.204 0-22.308 8.712-39.204 8.712-17.028 24.42-26.4 15.708-9.504 36.696-9.504 21.384 0 37.092 9.636t24.288 26.532 8.58 38.94q0 22.308-8.712 39.336-8.58 16.896-24.288 26.532-15.708 9.504-36.96 9.504zm0-26.004q20.46 0 30.492-13.728 10.164-13.86 10.164-35.64 0-22.308-10.296-35.64-10.164-13.464-30.36-13.464-13.86 0-22.836 6.336-8.976 6.204-13.332 17.292-4.356 10.956-4.356 25.476 0 22.44 10.296 35.904t30.228 13.464zm97 22.044v-142.56h24.552v34.584l-3.432-4.488q2.64-6.864 6.864-12.54 4.224-5.808 9.768-9.504 5.412-3.96 12.012-6.072 6.732-2.244 13.728-2.64 6.996-0.528 13.464 0.66v25.872q-6.996-1.848-15.576-1.056-8.448 0.792-15.576 5.412-6.732 4.356-10.692 10.56-3.828 6.204-5.544 13.86-1.716 7.524-1.716 15.972v71.94zm160.62 3.96q-21.252 0-37.356-9.24-15.972-9.372-24.948-26.004-8.844-16.764-8.844-38.808 0-23.364 8.712-40.524 8.844-17.16 24.552-26.532t36.564-9.372q21.78 0 37.092 10.164 15.312 10.032 22.836 28.644 7.656 18.612 6.072 44.22h-27.588v-10.032q-0.264-24.816-9.504-36.696-9.108-11.88-27.852-11.88-20.724 0-31.152 13.068t-10.428 37.752q0 23.496 10.428 36.432 10.428 12.804 30.096 12.804 12.936 0 22.308-5.808 9.504-5.94 14.784-16.896l27.06 8.58q-8.316 19.14-25.212 29.7-16.896 10.428-37.62 10.428zm-50.82-67.452v-21.516h101.77v21.516zm224.64 63.492q-13.464 2.64-26.4 2.244t-23.1-5.016-15.312-14.52q-4.62-8.844-5.016-17.952-0.264-9.24-0.264-20.856v-126.06h27.72v124.74q0 8.58 0.132 14.916 0.264 6.336 2.772 10.692 4.752 8.184 15.048 9.372 10.428 1.056 24.42-0.924zm-97.416-120.38v-22.176h97.416v22.176zm179.9 124.21q-26.004 0-42.372-11.484t-20.064-32.34l28.248-4.356q2.64 11.088 12.144 17.556 9.636 6.336 23.892 6.336 12.936 0 20.196-5.28 7.392-5.28 7.392-14.52 0-5.412-2.64-8.712-2.508-3.432-10.692-6.468t-24.948-7.524q-18.348-4.752-29.172-10.164-10.692-5.544-15.312-12.804-4.488-7.392-4.488-17.82 0-12.936 6.864-22.572t19.272-14.916q12.54-5.28 29.304-5.28 16.368 0 29.172 5.148t20.724 14.652q7.92 9.372 9.504 22.044l-28.248 5.148q-1.452-10.296-9.636-16.236t-21.252-6.468q-12.54-0.528-20.328 4.224-7.788 4.62-7.788 12.804 0 4.752 2.904 8.052 3.036 3.3 11.616 6.336t25.344 7.26q17.952 4.62 28.512 10.296 10.56 5.544 15.048 13.332 4.62 7.656 4.62 18.612 0 21.12-15.444 33.132-15.312 12.012-42.372 12.012zm87.628-169.75v-26.796h27.588v26.796zm0 165.92v-142.56h27.588v142.56zm105.45 3.96q-15.84 0-26.532-5.808-10.692-5.94-16.236-15.576-5.412-9.768-5.412-21.384 0-10.824 3.828-19.008t11.352-13.86q7.524-5.808 18.48-9.372 9.504-2.772 21.516-4.884t25.212-3.96q13.332-1.848 26.4-3.696l-10.032 5.544q0.264-16.764-7.128-24.816-7.26-8.184-25.08-8.184-11.22 0-20.592 5.28-9.372 5.148-13.068 17.16l-25.74-7.92q5.28-18.348 20.064-29.172 14.916-10.824 39.6-10.824 19.14 0 33.264 6.6 14.256 6.468 20.856 20.592 3.432 6.996 4.224 14.784t0.792 16.764v87.78h-24.42v-32.604l4.752 4.224q-8.844 16.368-22.572 24.42-13.596 7.92-33.528 7.92zm4.884-22.572q11.748 0 20.196-4.092 8.448-4.224 13.596-10.692t6.732-13.464q2.244-6.336 2.508-14.256 0.396-7.92 0.396-12.672l8.976 3.3q-13.068 1.98-23.76 3.564t-19.404 3.168q-8.58 1.452-15.312 3.564-5.676 1.98-10.164 4.752-4.356 2.772-6.996 6.732-2.508 3.96-2.508 9.636 0 5.544 2.772 10.296 2.772 4.62 8.448 7.392t14.52 2.772z"/>
</svg>
